<svg width="28" height="28" viewBox="0 0 28 28" fill="none" xmlns="http://www.w3.org/2000/svg">
<path d="M7.39789 4.25922C7.49892 2.24277 6.21048 0.0860025 4.02967 0.0627805C3.69581 -0.0727735 3.06361 0.0394331 2.72695 0.134444C0.669855 0.715165 -0.434279 2.81309 0.160358 4.85247C0.50934 6.04957 1.19974 6.61302 2.25026 7.19336L2.24949 15.7583C2.24881 16.3825 2.13903 16.9888 2.61572 17.4736C3.15351 18.0209 4.08566 18.0455 4.63042 17.491C5.03039 17.0839 4.9907 16.5425 4.99096 16.015L4.99053 10.9046V7.19336C5.34784 7.09801 5.66199 6.8809 5.96194 6.67262C7.02282 7.21662 8.21413 7.88637 9.24273 8.48691L10.3019 9.1131C10.8185 9.41936 11.3723 9.82029 12.0047 9.65379C13.0379 9.38183 13.4438 8.09524 12.5824 7.36207C12.3771 7.18724 12.1235 7.06124 11.8908 6.92683L10.8695 6.33163C9.7116 5.64372 8.57093 4.92116 7.39789 4.25922Z" fill="#DCE8FF"/>
<path d="M25.6671 7.24911C25.9407 7.09076 26.2232 6.93707 26.479 6.75079C29.196 4.77279 28.0867 0.587518 24.6381 0.0629199C22.2121 -0.208061 20.1239 2.02979 20.5751 4.45601L6.4118 20.4154C6.16631 20.6909 5.9097 20.9622 5.69089 21.2598C3.96825 20.1191 1.51806 20.6132 0.478511 22.4485C-0.522804 24.2162 0.103527 26.5423 1.89118 27.5302C4.74302 29.106 8.15824 26.4654 7.23968 23.3693C7.80739 22.8165 8.32334 22.2061 8.85527 21.6189L19.2015 10.186C20.1817 9.09303 21.1682 7.98584 22.1938 6.93707L22.8613 7.24911L22.8617 16.657C22.8617 18.0482 22.8447 19.4411 22.8613 20.8323C22.5052 20.873 22.2563 21.0658 21.9678 21.2598C20.7977 20.6285 19.5903 19.917 18.4402 19.2483C17.9142 18.9431 17.0662 18.3827 16.5172 18.1976C15.1496 17.7353 14.1505 19.6368 15.1612 20.516C15.54 20.8454 16.0507 21.0734 16.4854 21.3294C17.8207 22.1152 19.1866 22.8509 20.5258 23.6308C20.1409 28.3538 26.0087 29.3994 27.6006 25.8664C28.4614 23.9556 27.5815 21.6805 25.6671 20.8323V8.62791C25.6666 8.17374 25.6297 7.70005 25.6671 7.24911Z" fill="#DCE8FF"/>
<path d="M25.6671 7.24911C25.9407 7.09076 26.2232 6.93707 26.479 6.75079C29.196 4.77279 28.0867 0.587518 24.6381 0.0629199C22.2121 -0.208061 20.1239 2.02979 20.5751 4.45601L6.4118 20.4154C6.16631 20.6909 5.9097 20.9622 5.69089 21.2598C3.96825 20.1191 1.51806 20.6132 0.478511 22.4485C-0.522804 24.2162 0.103527 26.5423 1.89118 27.5302C4.74302 29.106 8.15824 26.4654 7.23968 23.3693C7.80739 22.8165 8.32334 22.2061 8.85527 21.6189L19.2015 10.186C20.1817 9.09303 21.1682 7.98584 22.1938 6.93707L22.8613 7.24911L22.8617 16.657C22.8617 18.0482 22.8447 19.4411 22.8613 20.8323C22.5052 20.873 22.2563 21.0658 21.9678 21.2598C20.7977 20.6285 19.5903 19.917 18.4402 19.2483C17.9142 18.9431 17.0662 18.3827 16.5172 18.1976C15.1496 17.7353 14.1505 19.6368 15.1612 20.516C15.54 20.8454 16.0507 21.0734 16.4854 21.3294C17.8207 22.1152 19.1866 22.8509 20.5258 23.6308C20.1409 28.3538 26.0087 29.3994 27.6006 25.8664C28.4614 23.9556 27.5815 21.6805 25.6671 20.8323V8.62791C25.6666 8.17374 25.6297 7.70005 25.6671 7.24911Z" fill="#DCE8FF"/>
<path d="M7.39789 4.25922C7.49892 2.24277 6.21048 0.0860025 4.02967 0.0627805C3.69581 -0.0727735 3.06361 0.0394331 2.72695 0.134444C0.669855 0.715165 -0.434279 2.81309 0.160358 4.85247C0.50934 6.04957 1.19974 6.61302 2.25026 7.19336L2.24949 15.7583C2.24881 16.3825 2.13903 16.9888 2.61572 17.4736C3.15351 18.0209 4.08566 18.0455 4.63042 17.491C5.03039 17.0839 4.9907 16.5425 4.99096 16.015L4.99053 10.9046V7.19336C5.34784 7.09801 5.66199 6.8809 5.96194 6.67262C7.02282 7.21662 8.21413 7.88637 9.24273 8.48691L10.3019 9.1131C10.8185 9.41936 11.3723 9.82029 12.0047 9.65379C13.0379 9.38183 13.4438 8.09524 12.5824 7.36207C12.3771 7.18724 12.1235 7.06124 11.8908 6.92683L10.8695 6.33163C9.7116 5.64372 8.57093 4.92116 7.39789 4.25922Z" fill="#DCE8FF"/>
</svg>
